<mxfile host="app.diagrams.net" modified="2023-05-08T08:00:37.928Z" agent="Mozilla/5.0 (Windows NT 10.0; Win64; x64) AppleWebKit/537.36 (KHTML, like Gecko) Chrome/112.0.0.0 Safari/537.36" etag="XmtjrpcU6x6h-QdWGG6n" version="21.2.9" type="device">
  <diagram name="Page-1" id="pE2b6lICvJHeEwFVFvuB">
    <mxGraphModel dx="2962" dy="1012" grid="1" gridSize="10" guides="1" tooltips="1" connect="1" arrows="1" fold="1" page="1" pageScale="1" pageWidth="850" pageHeight="1100" math="0" shadow="0">
      <root>
        <mxCell id="0" />
        <mxCell id="1" parent="0" />
        <mxCell id="-6BWU4B8x96btP3hxECF-2" value="" style="group" vertex="1" connectable="0" parent="1">
          <mxGeometry x="-210" y="440" width="190" height="100" as="geometry" />
        </mxCell>
        <mxCell id="Jq1Wk0hfR0uQWQ89zaYM-61" value="" style="rounded=0;whiteSpace=wrap;html=1;" parent="-6BWU4B8x96btP3hxECF-2" vertex="1">
          <mxGeometry width="150" height="100" as="geometry" />
        </mxCell>
        <mxCell id="Jq1Wk0hfR0uQWQ89zaYM-62" value="&lt;font style=&quot;font-size: 12px;&quot;&gt;&lt;b style=&quot;&quot;&gt;German Shepherd&lt;/b&gt;&lt;/font&gt;" style="text;html=1;strokeColor=none;fillColor=none;align=center;verticalAlign=middle;whiteSpace=wrap;rounded=0;" parent="-6BWU4B8x96btP3hxECF-2" vertex="1">
          <mxGeometry x="12.5" width="125" height="30" as="geometry" />
        </mxCell>
        <mxCell id="Jq1Wk0hfR0uQWQ89zaYM-64" value="" style="endArrow=none;html=1;rounded=0;" parent="-6BWU4B8x96btP3hxECF-2" edge="1">
          <mxGeometry width="50" height="50" relative="1" as="geometry">
            <mxPoint y="30" as="sourcePoint" />
            <mxPoint x="150" y="30" as="targetPoint" />
          </mxGeometry>
        </mxCell>
        <mxCell id="Jq1Wk0hfR0uQWQ89zaYM-66" value="+ describe() : void" style="text;html=1;strokeColor=none;fillColor=none;align=left;verticalAlign=middle;whiteSpace=wrap;rounded=0;" parent="-6BWU4B8x96btP3hxECF-2" vertex="1">
          <mxGeometry x="10" y="40" width="180" height="30" as="geometry" />
        </mxCell>
        <mxCell id="-6BWU4B8x96btP3hxECF-48" value="+ move() : void" style="text;html=1;strokeColor=none;fillColor=none;align=left;verticalAlign=middle;whiteSpace=wrap;rounded=0;" vertex="1" parent="-6BWU4B8x96btP3hxECF-2">
          <mxGeometry x="10" y="60" width="180" height="30" as="geometry" />
        </mxCell>
        <mxCell id="-6BWU4B8x96btP3hxECF-3" value="" style="group" vertex="1" connectable="0" parent="1">
          <mxGeometry x="190" y="440" width="190" height="100" as="geometry" />
        </mxCell>
        <mxCell id="Jq1Wk0hfR0uQWQ89zaYM-56" value="" style="rounded=0;whiteSpace=wrap;html=1;" parent="-6BWU4B8x96btP3hxECF-3" vertex="1">
          <mxGeometry width="150" height="100" as="geometry" />
        </mxCell>
        <mxCell id="Jq1Wk0hfR0uQWQ89zaYM-57" value="&lt;font style=&quot;font-size: 12px;&quot;&gt;&lt;b style=&quot;&quot;&gt;BullDog&lt;/b&gt;&lt;/font&gt;" style="text;html=1;strokeColor=none;fillColor=none;align=center;verticalAlign=middle;whiteSpace=wrap;rounded=0;" parent="-6BWU4B8x96btP3hxECF-3" vertex="1">
          <mxGeometry x="10" width="125" height="30" as="geometry" />
        </mxCell>
        <mxCell id="Jq1Wk0hfR0uQWQ89zaYM-58" value="" style="endArrow=none;html=1;rounded=0;" parent="-6BWU4B8x96btP3hxECF-3" edge="1">
          <mxGeometry width="50" height="50" relative="1" as="geometry">
            <mxPoint y="29" as="sourcePoint" />
            <mxPoint x="150" y="29" as="targetPoint" />
          </mxGeometry>
        </mxCell>
        <mxCell id="Jq1Wk0hfR0uQWQ89zaYM-59" value="+ move() : void" style="text;html=1;strokeColor=none;fillColor=none;align=left;verticalAlign=middle;whiteSpace=wrap;rounded=0;" parent="-6BWU4B8x96btP3hxECF-3" vertex="1">
          <mxGeometry x="10" y="35" width="110" height="30" as="geometry" />
        </mxCell>
        <mxCell id="Jq1Wk0hfR0uQWQ89zaYM-60" value="+ describe() : void" style="text;html=1;strokeColor=none;fillColor=none;align=left;verticalAlign=middle;whiteSpace=wrap;rounded=0;" parent="-6BWU4B8x96btP3hxECF-3" vertex="1">
          <mxGeometry x="10" y="65" width="180" height="30" as="geometry" />
        </mxCell>
        <mxCell id="-6BWU4B8x96btP3hxECF-5" value="" style="group" vertex="1" connectable="0" parent="1">
          <mxGeometry x="-410" y="440" width="190" height="100" as="geometry" />
        </mxCell>
        <mxCell id="Jq1Wk0hfR0uQWQ89zaYM-44" value="" style="rounded=0;whiteSpace=wrap;html=1;" parent="-6BWU4B8x96btP3hxECF-5" vertex="1">
          <mxGeometry width="150" height="100" as="geometry" />
        </mxCell>
        <mxCell id="Jq1Wk0hfR0uQWQ89zaYM-45" value="&lt;font style=&quot;font-size: 12px;&quot;&gt;&lt;b style=&quot;&quot;&gt;Siberian Husky&lt;/b&gt;&lt;/font&gt;" style="text;html=1;strokeColor=none;fillColor=none;align=center;verticalAlign=middle;whiteSpace=wrap;rounded=0;" parent="-6BWU4B8x96btP3hxECF-5" vertex="1">
          <mxGeometry x="12.5" width="125" height="30" as="geometry" />
        </mxCell>
        <mxCell id="Jq1Wk0hfR0uQWQ89zaYM-46" value="" style="endArrow=none;html=1;rounded=0;" parent="-6BWU4B8x96btP3hxECF-5" edge="1">
          <mxGeometry width="50" height="50" relative="1" as="geometry">
            <mxPoint y="30" as="sourcePoint" />
            <mxPoint x="150" y="30" as="targetPoint" />
          </mxGeometry>
        </mxCell>
        <mxCell id="-6BWU4B8x96btP3hxECF-66" value="&lt;span style=&quot;color: rgb(0, 0, 0); font-family: Helvetica; font-size: 12px; font-style: normal; font-variant-ligatures: normal; font-variant-caps: normal; font-weight: 400; letter-spacing: normal; orphans: 2; text-align: left; text-indent: 0px; text-transform: none; widows: 2; word-spacing: 0px; -webkit-text-stroke-width: 0px; background-color: rgb(251, 251, 251); text-decoration-thickness: initial; text-decoration-style: initial; text-decoration-color: initial; float: none; display: inline !important;&quot;&gt;+ move() : void&lt;/span&gt;" style="text;whiteSpace=wrap;html=1;" vertex="1" parent="-6BWU4B8x96btP3hxECF-5">
          <mxGeometry x="12.5" y="30" width="110" height="40" as="geometry" />
        </mxCell>
        <mxCell id="-6BWU4B8x96btP3hxECF-67" value="&lt;span style=&quot;color: rgb(0, 0, 0); font-family: Helvetica; font-size: 12px; font-style: normal; font-variant-ligatures: normal; font-variant-caps: normal; font-weight: 400; letter-spacing: normal; orphans: 2; text-align: left; text-indent: 0px; text-transform: none; widows: 2; word-spacing: 0px; -webkit-text-stroke-width: 0px; background-color: rgb(251, 251, 251); text-decoration-thickness: initial; text-decoration-style: initial; text-decoration-color: initial; float: none; display: inline !important;&quot;&gt;+ describe() : void&lt;/span&gt;" style="text;whiteSpace=wrap;html=1;" vertex="1" parent="-6BWU4B8x96btP3hxECF-5">
          <mxGeometry x="12.5" y="60" width="130" height="40" as="geometry" />
        </mxCell>
        <mxCell id="-6BWU4B8x96btP3hxECF-6" value="" style="group" vertex="1" connectable="0" parent="1">
          <mxGeometry x="-10" y="440" width="190" height="100" as="geometry" />
        </mxCell>
        <mxCell id="Jq1Wk0hfR0uQWQ89zaYM-14" value="" style="rounded=0;whiteSpace=wrap;html=1;" parent="-6BWU4B8x96btP3hxECF-6" vertex="1">
          <mxGeometry width="150" height="100" as="geometry" />
        </mxCell>
        <mxCell id="Jq1Wk0hfR0uQWQ89zaYM-15" value="&lt;font style=&quot;font-size: 12px;&quot;&gt;&lt;b style=&quot;&quot;&gt;Pitbull&lt;/b&gt;&lt;/font&gt;" style="text;html=1;strokeColor=none;fillColor=none;align=center;verticalAlign=middle;whiteSpace=wrap;rounded=0;" parent="-6BWU4B8x96btP3hxECF-6" vertex="1">
          <mxGeometry x="45" width="60" height="30" as="geometry" />
        </mxCell>
        <mxCell id="Jq1Wk0hfR0uQWQ89zaYM-16" value="" style="endArrow=none;html=1;rounded=0;" parent="-6BWU4B8x96btP3hxECF-6" edge="1">
          <mxGeometry width="50" height="50" relative="1" as="geometry">
            <mxPoint y="30" as="sourcePoint" />
            <mxPoint x="150" y="30" as="targetPoint" />
          </mxGeometry>
        </mxCell>
        <mxCell id="Jq1Wk0hfR0uQWQ89zaYM-17" value="+ move() : void" style="text;html=1;strokeColor=none;fillColor=none;align=left;verticalAlign=middle;whiteSpace=wrap;rounded=0;" parent="-6BWU4B8x96btP3hxECF-6" vertex="1">
          <mxGeometry x="10" y="35" width="110" height="30" as="geometry" />
        </mxCell>
        <mxCell id="Jq1Wk0hfR0uQWQ89zaYM-18" value="+ describe() : void" style="text;html=1;strokeColor=none;fillColor=none;align=left;verticalAlign=middle;whiteSpace=wrap;rounded=0;" parent="-6BWU4B8x96btP3hxECF-6" vertex="1">
          <mxGeometry x="10" y="65" width="180" height="30" as="geometry" />
        </mxCell>
        <mxCell id="-6BWU4B8x96btP3hxECF-8" value="" style="group" vertex="1" connectable="0" parent="1">
          <mxGeometry x="-110" y="240" width="150" height="130" as="geometry" />
        </mxCell>
        <mxCell id="-6BWU4B8x96btP3hxECF-9" value="" style="rounded=0;whiteSpace=wrap;html=1;" vertex="1" parent="-6BWU4B8x96btP3hxECF-8">
          <mxGeometry width="150" height="130" as="geometry" />
        </mxCell>
        <mxCell id="-6BWU4B8x96btP3hxECF-10" value="&lt;font style=&quot;font-size: 12px;&quot;&gt;&lt;b style=&quot;&quot;&gt;Dog&lt;/b&gt;&lt;/font&gt;" style="text;html=1;strokeColor=none;fillColor=none;align=center;verticalAlign=middle;whiteSpace=wrap;rounded=0;" vertex="1" parent="-6BWU4B8x96btP3hxECF-8">
          <mxGeometry x="45" width="60" height="30" as="geometry" />
        </mxCell>
        <mxCell id="-6BWU4B8x96btP3hxECF-11" value="" style="endArrow=none;html=1;rounded=0;" edge="1" parent="-6BWU4B8x96btP3hxECF-8">
          <mxGeometry width="50" height="50" relative="1" as="geometry">
            <mxPoint y="30" as="sourcePoint" />
            <mxPoint x="150" y="30" as="targetPoint" />
          </mxGeometry>
        </mxCell>
        <mxCell id="-6BWU4B8x96btP3hxECF-12" value="+ describe() : void" style="text;html=1;strokeColor=none;fillColor=none;align=left;verticalAlign=middle;whiteSpace=wrap;rounded=0;" vertex="1" parent="-6BWU4B8x96btP3hxECF-8">
          <mxGeometry x="10" y="100" width="110" height="30" as="geometry" />
        </mxCell>
        <mxCell id="-6BWU4B8x96btP3hxECF-13" value="+ position : int" style="text;html=1;strokeColor=none;fillColor=none;align=left;verticalAlign=middle;whiteSpace=wrap;rounded=0;" vertex="1" parent="-6BWU4B8x96btP3hxECF-8">
          <mxGeometry x="10" y="30" width="110" height="30" as="geometry" />
        </mxCell>
        <mxCell id="-6BWU4B8x96btP3hxECF-14" value="+ averageLength" style="text;html=1;strokeColor=none;fillColor=none;align=left;verticalAlign=middle;whiteSpace=wrap;rounded=0;" vertex="1" parent="-6BWU4B8x96btP3hxECF-8">
          <mxGeometry x="10" y="60" width="110" height="30" as="geometry" />
        </mxCell>
        <mxCell id="-6BWU4B8x96btP3hxECF-15" value="" style="endArrow=none;html=1;rounded=0;" edge="1" parent="-6BWU4B8x96btP3hxECF-8">
          <mxGeometry width="50" height="50" relative="1" as="geometry">
            <mxPoint y="90" as="sourcePoint" />
            <mxPoint x="150" y="90" as="targetPoint" />
          </mxGeometry>
        </mxCell>
        <mxCell id="-6BWU4B8x96btP3hxECF-16" value="" style="group" vertex="1" connectable="0" parent="1">
          <mxGeometry x="210" y="240" width="150" height="130" as="geometry" />
        </mxCell>
        <mxCell id="Jq1Wk0hfR0uQWQ89zaYM-89" value="" style="rounded=0;whiteSpace=wrap;html=1;" parent="-6BWU4B8x96btP3hxECF-16" vertex="1">
          <mxGeometry width="150" height="130.00000000000003" as="geometry" />
        </mxCell>
        <mxCell id="Jq1Wk0hfR0uQWQ89zaYM-90" value="&lt;font style=&quot;font-size: 12px;&quot;&gt;&lt;b style=&quot;&quot;&gt;Car&lt;/b&gt;&lt;/font&gt;" style="text;html=1;strokeColor=none;fillColor=none;align=center;verticalAlign=middle;whiteSpace=wrap;rounded=0;" parent="-6BWU4B8x96btP3hxECF-16" vertex="1">
          <mxGeometry x="40" width="60" height="43.33333333333334" as="geometry" />
        </mxCell>
        <mxCell id="Jq1Wk0hfR0uQWQ89zaYM-91" value="" style="endArrow=none;html=1;rounded=0;" parent="-6BWU4B8x96btP3hxECF-16" edge="1">
          <mxGeometry width="50" height="50" relative="1" as="geometry">
            <mxPoint y="41.8888888888889" as="sourcePoint" />
            <mxPoint x="150" y="41.8888888888889" as="targetPoint" />
          </mxGeometry>
        </mxCell>
        <mxCell id="Jq1Wk0hfR0uQWQ89zaYM-92" value="+ describe() : void" style="text;html=1;strokeColor=none;fillColor=none;align=left;verticalAlign=middle;whiteSpace=wrap;rounded=0;" parent="-6BWU4B8x96btP3hxECF-16" vertex="1">
          <mxGeometry x="5" y="99.99666666666668" width="110" height="43.33333333333334" as="geometry" />
        </mxCell>
        <mxCell id="-6BWU4B8x96btP3hxECF-19" value="" style="endArrow=none;html=1;rounded=0;" edge="1" parent="-6BWU4B8x96btP3hxECF-16">
          <mxGeometry width="50" height="50" relative="1" as="geometry">
            <mxPoint y="106.3679797979798" as="sourcePoint" />
            <mxPoint x="150" y="106.3679797979798" as="targetPoint" />
          </mxGeometry>
        </mxCell>
        <mxCell id="-6BWU4B8x96btP3hxECF-28" value="+ totalForwardGear : int" style="text;html=1;strokeColor=none;fillColor=none;align=center;verticalAlign=middle;whiteSpace=wrap;rounded=0;" vertex="1" parent="-6BWU4B8x96btP3hxECF-16">
          <mxGeometry y="35.45" width="140" height="35.45" as="geometry" />
        </mxCell>
        <mxCell id="-6BWU4B8x96btP3hxECF-29" value="&lt;span style=&quot;color: rgb(0, 0, 0); font-family: Helvetica; font-size: 12px; font-style: normal; font-variant-ligatures: normal; font-variant-caps: normal; font-weight: 400; letter-spacing: normal; orphans: 2; text-align: left; text-indent: 0px; text-transform: none; widows: 2; word-spacing: 0px; -webkit-text-stroke-width: 0px; background-color: rgb(251, 251, 251); text-decoration-thickness: initial; text-decoration-style: initial; text-decoration-color: initial; float: none; display: inline !important;&quot;&gt;+ colour : String&lt;/span&gt;" style="text;whiteSpace=wrap;html=1;" vertex="1" parent="-6BWU4B8x96btP3hxECF-16">
          <mxGeometry x="5" y="59.09090909090909" width="90" height="47.27272727272727" as="geometry" />
        </mxCell>
        <mxCell id="-6BWU4B8x96btP3hxECF-41" value="&lt;span style=&quot;color: rgb(0, 0, 0); font-family: Helvetica; font-size: 12px; font-style: normal; font-variant-ligatures: normal; font-variant-caps: normal; font-weight: 400; letter-spacing: normal; orphans: 2; text-align: left; text-indent: 0px; text-transform: none; widows: 2; word-spacing: 0px; -webkit-text-stroke-width: 0px; background-color: rgb(251, 251, 251); text-decoration-thickness: initial; text-decoration-style: initial; text-decoration-color: initial; float: none; display: inline !important;&quot;&gt;+ maxSpeed : int&lt;/span&gt;" style="text;whiteSpace=wrap;html=1;" vertex="1" parent="-6BWU4B8x96btP3hxECF-16">
          <mxGeometry x="5" y="80" width="120" height="40" as="geometry" />
        </mxCell>
        <mxCell id="-6BWU4B8x96btP3hxECF-17" value="" style="group" vertex="1" connectable="0" parent="1">
          <mxGeometry x="480" y="240" width="150" height="130" as="geometry" />
        </mxCell>
        <mxCell id="Jq1Wk0hfR0uQWQ89zaYM-77" value="" style="rounded=0;whiteSpace=wrap;html=1;" parent="-6BWU4B8x96btP3hxECF-17" vertex="1">
          <mxGeometry width="150" height="130" as="geometry" />
        </mxCell>
        <mxCell id="Jq1Wk0hfR0uQWQ89zaYM-78" value="&lt;font style=&quot;font-size: 12px;&quot;&gt;&lt;b style=&quot;&quot;&gt;SmartPhone&lt;/b&gt;&lt;/font&gt;" style="text;html=1;strokeColor=none;fillColor=none;align=center;verticalAlign=middle;whiteSpace=wrap;rounded=0;" parent="-6BWU4B8x96btP3hxECF-17" vertex="1">
          <mxGeometry x="45" width="60" height="43.333333333333336" as="geometry" />
        </mxCell>
        <mxCell id="Jq1Wk0hfR0uQWQ89zaYM-79" value="" style="endArrow=none;html=1;rounded=0;" parent="-6BWU4B8x96btP3hxECF-17" edge="1">
          <mxGeometry width="50" height="50" relative="1" as="geometry">
            <mxPoint y="43.333333333333336" as="sourcePoint" />
            <mxPoint x="150" y="43.333333333333336" as="targetPoint" />
          </mxGeometry>
        </mxCell>
        <mxCell id="Jq1Wk0hfR0uQWQ89zaYM-80" value="+ describe() : void" style="text;html=1;strokeColor=none;fillColor=none;align=left;verticalAlign=middle;whiteSpace=wrap;rounded=0;" parent="-6BWU4B8x96btP3hxECF-17" vertex="1">
          <mxGeometry x="10" y="89.99555555555555" width="110" height="43.333333333333336" as="geometry" />
        </mxCell>
        <mxCell id="-6BWU4B8x96btP3hxECF-38" value="&lt;span style=&quot;color: rgb(0, 0, 0); font-family: Helvetica; font-size: 12px; font-style: normal; font-variant-ligatures: normal; font-variant-caps: normal; font-weight: 400; letter-spacing: normal; orphans: 2; text-align: center; text-indent: 0px; text-transform: none; widows: 2; word-spacing: 0px; -webkit-text-stroke-width: 0px; background-color: rgb(251, 251, 251); text-decoration-thickness: initial; text-decoration-style: initial; text-decoration-color: initial; float: none; display: inline !important;&quot;&gt;+ brand : String&lt;/span&gt;" style="text;whiteSpace=wrap;html=1;" vertex="1" parent="-6BWU4B8x96btP3hxECF-17">
          <mxGeometry x="10" y="45" width="120" height="40" as="geometry" />
        </mxCell>
        <mxCell id="-6BWU4B8x96btP3hxECF-39" value="" style="endArrow=none;html=1;rounded=0;" edge="1" parent="-6BWU4B8x96btP3hxECF-17">
          <mxGeometry width="50" height="50" relative="1" as="geometry">
            <mxPoint y="100.00333333333333" as="sourcePoint" />
            <mxPoint x="150" y="100.00333333333333" as="targetPoint" />
          </mxGeometry>
        </mxCell>
        <mxCell id="-6BWU4B8x96btP3hxECF-40" value="&lt;span style=&quot;color: rgb(0, 0, 0); font-family: Helvetica; font-size: 12px; font-style: normal; font-variant-ligatures: normal; font-variant-caps: normal; font-weight: 400; letter-spacing: normal; orphans: 2; text-align: left; text-indent: 0px; text-transform: none; widows: 2; word-spacing: 0px; -webkit-text-stroke-width: 0px; background-color: rgb(251, 251, 251); text-decoration-thickness: initial; text-decoration-style: initial; text-decoration-color: initial; float: none; display: inline !important;&quot;&gt;+ price : int&lt;/span&gt;" style="text;whiteSpace=wrap;html=1;" vertex="1" parent="-6BWU4B8x96btP3hxECF-17">
          <mxGeometry x="10" y="70" width="90" height="40" as="geometry" />
        </mxCell>
        <mxCell id="-6BWU4B8x96btP3hxECF-18" value="" style="group" vertex="1" connectable="0" parent="1">
          <mxGeometry x="180" y="50" width="200" height="60" as="geometry" />
        </mxCell>
        <mxCell id="Jq1Wk0hfR0uQWQ89zaYM-1" value="" style="rounded=0;whiteSpace=wrap;html=1;" parent="-6BWU4B8x96btP3hxECF-18" vertex="1">
          <mxGeometry width="200" height="60" as="geometry" />
        </mxCell>
        <mxCell id="Jq1Wk0hfR0uQWQ89zaYM-2" value="&lt;font style=&quot;font-size: 12px;&quot;&gt;&lt;b style=&quot;&quot;&gt;Move&lt;/b&gt;&lt;/font&gt;" style="text;html=1;strokeColor=none;fillColor=none;align=center;verticalAlign=middle;whiteSpace=wrap;rounded=0;" parent="-6BWU4B8x96btP3hxECF-18" vertex="1">
          <mxGeometry x="70" width="60" height="30" as="geometry" />
        </mxCell>
        <mxCell id="Jq1Wk0hfR0uQWQ89zaYM-3" value="" style="endArrow=none;html=1;rounded=0;" parent="-6BWU4B8x96btP3hxECF-18" edge="1">
          <mxGeometry width="50" height="50" relative="1" as="geometry">
            <mxPoint y="30" as="sourcePoint" />
            <mxPoint x="200" y="30" as="targetPoint" />
          </mxGeometry>
        </mxCell>
        <mxCell id="Jq1Wk0hfR0uQWQ89zaYM-9" value="+ move() : void" style="text;html=1;strokeColor=none;fillColor=none;align=left;verticalAlign=middle;whiteSpace=wrap;rounded=0;" parent="-6BWU4B8x96btP3hxECF-18" vertex="1">
          <mxGeometry x="10" y="30" width="180" height="30" as="geometry" />
        </mxCell>
        <mxCell id="-6BWU4B8x96btP3hxECF-78" style="edgeStyle=orthogonalEdgeStyle;rounded=0;orthogonalLoop=1;jettySize=auto;html=1;exitX=0.5;exitY=1;exitDx=0;exitDy=0;entryX=0.5;entryY=0;entryDx=0;entryDy=0;" edge="1" parent="1" source="-6BWU4B8x96btP3hxECF-12" target="Jq1Wk0hfR0uQWQ89zaYM-45">
          <mxGeometry relative="1" as="geometry" />
        </mxCell>
        <mxCell id="-6BWU4B8x96btP3hxECF-79" style="edgeStyle=orthogonalEdgeStyle;rounded=0;orthogonalLoop=1;jettySize=auto;html=1;" edge="1" parent="1" source="-6BWU4B8x96btP3hxECF-12" target="Jq1Wk0hfR0uQWQ89zaYM-62">
          <mxGeometry relative="1" as="geometry" />
        </mxCell>
        <mxCell id="-6BWU4B8x96btP3hxECF-80" style="edgeStyle=orthogonalEdgeStyle;rounded=0;orthogonalLoop=1;jettySize=auto;html=1;exitX=0.5;exitY=1;exitDx=0;exitDy=0;entryX=0.5;entryY=0;entryDx=0;entryDy=0;" edge="1" parent="1" source="-6BWU4B8x96btP3hxECF-12" target="Jq1Wk0hfR0uQWQ89zaYM-15">
          <mxGeometry relative="1" as="geometry" />
        </mxCell>
        <mxCell id="-6BWU4B8x96btP3hxECF-81" style="edgeStyle=orthogonalEdgeStyle;rounded=0;orthogonalLoop=1;jettySize=auto;html=1;exitX=0.5;exitY=1;exitDx=0;exitDy=0;entryX=0.5;entryY=0;entryDx=0;entryDy=0;" edge="1" parent="1" source="-6BWU4B8x96btP3hxECF-12" target="Jq1Wk0hfR0uQWQ89zaYM-57">
          <mxGeometry relative="1" as="geometry" />
        </mxCell>
        <mxCell id="-6BWU4B8x96btP3hxECF-82" style="edgeStyle=orthogonalEdgeStyle;rounded=0;orthogonalLoop=1;jettySize=auto;html=1;exitX=0.5;exitY=1;exitDx=0;exitDy=0;entryX=0.5;entryY=0;entryDx=0;entryDy=0;" edge="1" parent="1" source="Jq1Wk0hfR0uQWQ89zaYM-9" target="Jq1Wk0hfR0uQWQ89zaYM-90">
          <mxGeometry relative="1" as="geometry" />
        </mxCell>
        <mxCell id="-6BWU4B8x96btP3hxECF-84" style="edgeStyle=orthogonalEdgeStyle;rounded=0;orthogonalLoop=1;jettySize=auto;html=1;exitX=0.5;exitY=1;exitDx=0;exitDy=0;entryX=0.5;entryY=0;entryDx=0;entryDy=0;" edge="1" parent="1" source="Jq1Wk0hfR0uQWQ89zaYM-9" target="-6BWU4B8x96btP3hxECF-10">
          <mxGeometry relative="1" as="geometry" />
        </mxCell>
        <mxCell id="-6BWU4B8x96btP3hxECF-85" style="edgeStyle=orthogonalEdgeStyle;rounded=0;orthogonalLoop=1;jettySize=auto;html=1;exitX=0.5;exitY=1;exitDx=0;exitDy=0;entryX=0.5;entryY=0;entryDx=0;entryDy=0;" edge="1" parent="1" source="Jq1Wk0hfR0uQWQ89zaYM-9" target="Jq1Wk0hfR0uQWQ89zaYM-78">
          <mxGeometry relative="1" as="geometry" />
        </mxCell>
      </root>
    </mxGraphModel>
  </diagram>
</mxfile>
